# xmcd CD database file
#
# Track frame offsets:
#	150
#	6946
#	28380
#	49105
#	68782
#	86235
#	98026
#	121446
#	138721
#	163306
#	177255
#	196794
#	212131
#	229079
#	249968
#
# Disc length: 3572 seconds
#
# Revision: 2
# Processed by: cddbd v1.4b41PL1 Copyright (c) Steve Scherf et al.
# Submitted via: Feurio! 1.52 - http://www.feurio.com
#
DISCID=d70df20f
DTITLE=Various Artist - Neues Projekt
DYEAR=1900
DGENRE=
TTITLE0=??? - Track: 1
TTITLE1=??? - Track: 2
TTITLE2=??? - Track: 3
TTITLE3=??? - Track: 4
TTITLE4=??? - Track: 5
TTITLE5=??? - Track: 6
TTITLE6=??? - Track: 7
TTITLE7=??? - Track: 8
TTITLE8=??? - Track: 9
TTITLE9=??? - Track: 10
TTITLE10=??? - Track: 11
TTITLE11=??? - Track: 12
TTITLE12=??? - Track: 13
TTITLE13=??? - Track: 14
TTITLE14=??? - Track: 15
EXTD=
EXTT0=
EXTT1=
EXTT2=
EXTT3=
EXTT4=
EXTT5=
EXTT6=
EXTT7=
EXTT8=
EXTT9=
EXTT10=
EXTT11=
EXTT12=
EXTT13=
EXTT14=
PLAYORDER=
